<?xml version="1.0" encoding="UTF-8" standalone="no"?>
<!-- Created with Inkscape (http://www.inkscape.org/) -->

<svg
   xmlns:dc="http://purl.org/dc/elements/1.1/"
   xmlns:cc="http://creativecommons.org/ns#"
   xmlns:rdf="http://www.w3.org/1999/02/22-rdf-syntax-ns#"
   xmlns:svg="http://www.w3.org/2000/svg"
   xmlns="http://www.w3.org/2000/svg"
   xmlns:sodipodi="http://sodipodi.sourceforge.net/DTD/sodipodi-0.dtd"
   xmlns:inkscape="http://www.inkscape.org/namespaces/inkscape"
   width="200mm"
   height="200mm"
   viewBox="0 0 200 200"
   version="1.1"
   id="svg8"
   inkscape:version="0.92.4 (5da689c313, 2019-01-14)"
   sodipodi:docname="logo.svg">
  <title
     id="title24">Pudron</title>
  <defs
     id="defs2" />
  <sodipodi:namedview
     id="base"
     pagecolor="#ffffff"
     bordercolor="#666666"
     borderopacity="1.0"
     inkscape:pageopacity="0.0"
     inkscape:pageshadow="2"
     inkscape:zoom="0.98994949"
     inkscape:cx="256.0135"
     inkscape:cy="395.55484"
     inkscape:document-units="mm"
     inkscape:current-layer="layer1"
     showgrid="false"
     fit-margin-top="0"
     fit-margin-left="0"
     fit-margin-right="0"
     fit-margin-bottom="0"
     inkscape:snap-bbox="true"
     inkscape:bbox-paths="false"
     inkscape:bbox-nodes="false"
     inkscape:snap-bbox-edge-midpoints="false"
     inkscape:snap-bbox-midpoints="true"
     inkscape:object-paths="true"
     inkscape:snap-intersection-paths="true"
     inkscape:snap-smooth-nodes="true"
     inkscape:snap-midpoints="true"
     inkscape:snap-object-midpoints="false"
     inkscape:snap-center="false"
     inkscape:object-nodes="true"
     inkscape:window-width="1920"
     inkscape:window-height="1001"
     inkscape:window-x="-9"
     inkscape:window-y="-9"
     inkscape:window-maximized="1" />
  <metadata
     id="metadata5">
    <rdf:RDF>
      <cc:Work
         rdf:about="">
        <dc:format>image/svg+xml</dc:format>
        <dc:type
           rdf:resource="http://purl.org/dc/dcmitype/StillImage" />
        <dc:title>Pudron</dc:title>
      </cc:Work>
    </rdf:RDF>
  </metadata>
  <g
     inkscape:label="Layer 1"
     inkscape:groupmode="layer"
     id="layer1"
     transform="translate(0,-97)">
    <path
       style="fill:#ff0000;stroke-width:0.35934991"
       d="m 20.96729,292.10845 c 0.0051,-0.17095 12.198077,-21.41366 27.095414,-47.206 l 27.086064,-46.89516 -17.781135,-0.0932 c -10.393438,-0.0545 -17.731839,-0.22811 -17.66248,-0.41789 0.122405,-0.33493 59.402297,-95.24113 59.422976,-95.13526 0.0063,0.0325 -0.04967,32.66917 -0.12453,72.52569 l -0.136108,72.46641 -38.146236,22.01192 c -20.980432,12.10655 -38.51008,22.24646 -38.954778,22.53313 -0.444694,0.28667 -0.804327,0.38135 -0.799187,0.21038 z"
       id="path26"
       inkscape:connector-curvature="0"
       inkscape:export-xdpi="96"
       inkscape:export-ydpi="96" />
    <path
       style="fill:#ff0000;stroke-width:0.35934991"
       d="m 107.56127,196.84468 v -50.21386 l 1.38183,1.43212 c 0.76001,0.78766 8.46855,8.7898 17.13008,17.78253 8.66154,8.99274 16.86495,17.49844 18.22981,18.90157 l 2.48156,2.55117 -9.01081,8.58447 c -4.95595,4.72146 -9.01083,8.68639 -9.01083,8.81096 0,0.17491 46.391,39.96643 48.85419,41.90429 0.43844,0.34494 -6.92979,0.44019 -34.74971,0.4492 l -35.30612,0.0107 z"
       id="path28"
       inkscape:connector-curvature="0"
       inkscape:export-xdpi="96"
       inkscape:export-ydpi="96" />
  </g>
</svg>
